VIDEO INFO:


Format                           : AVI
Format/Info                      : Audio Video Interleave
Format profile                   : OpenDML
Format settings                  : rec
File size                        : 698 MiB
Duration                         : 1h 28mn
Overall bit rate                 : 1 097 Kbps
Writing application              : AVI-Mux GUI 1.17.7, Aug  8 2006  20:59:17

Video
ID                               : 0
Format                           : MPEG-4 Visual
Format profile                   : Simple@L3
Format settings, BVOP            : No
Format settings, QPel            : No
Format settings, GMC             : No warppoints
Format settings, Matrix          : Default (H.263)
Codec ID                         : XVID
Codec ID/Hint                    : XviD
Duration                         : 1h 28mn
Bit rate                         : 955 Kbps
Width                            : 512 pixels
Height                           : 384 pixels
Display aspect ratio             : 4:3
Frame rate                       : 23.976 fps
Color space                      : YUV
Chroma subsampling               : 4:2:0
Bit depth                        : 8 bits
Scan type                        : Progressive
Compression mode                 : Lossy
Bits/(Pixel*Frame)               : 0.203
Stream size                      : 608 MiB (87%)
Writing library                  : XviD 1.2.1 (UTC 2008-12-04)

Audio
ID                               : 1
Format                           : MPEG Audio
Format version                   : Version 1
Format profile                   : Layer 3
Codec ID                         : 55
Codec ID/Hint                    : MP3
Duration                         : 1h 28mn
Bit rate mode                    : Variable
Bit rate                         : 140 Kbps
Channel(s)                       : 2 channels
Sampling rate                    : 48.0 KHz
Compression mode                 : Lossy
Stream size                      : 85.0 MiB (12%)
Alignment                        : Aligned on interleaves
Interleave, duration             : 24 ms (0.58 video frame)
Interleave, preload duration     : 166 ms
Writing library                  : LAME3.98r
Encoding settings                : -m s -V 4 -q 3 -lowpass 17 --abr 140

Text
ID                               : 2
Stream size                      : 110 KiB (0%)

-------------------------------------

Verenigde Staten
Komedie / Drama
93 minuten

geregisseerd door Douglas Barr
met Caroline Rhea, Kaley Cuoco en Melissa Halstrom

De knappe en sportieve studente Aly hoopte op een softbal sportbeurs om op de universiteit te raken, maar een knieblessure verwoest haar dromen. Ze beslist om deel te nemen aan een documentairewedstrijd in de hoop de hoofdprijs te winnen om haar studies te bekostigen. Omdat ze gelooft dat mensen met overgewicht, zoals haar moeder en haar broer, zich steeds verschuilen achter excuses over hoe de omgeving hen beoordeelt, besluit ze om voor de documentaire op een nabijgelegen school lessen te volgen als een persoon met obesitas. Aly hoopt hiermee te bewijzen dat een stralende persoonlijkheid haar fysieke verschijning zal overtreffen, maar ze wordt enkel geconfronteerd met spot en wordt vanaf dag één gepest. Stilaan begint ze in te zien dat ze verkeerd omging met het overgewicht van haar moeder en haar broer.

-Ondertiteling (nederlands) in de film met mogelijkheid deze aan/uit te zetten

Zelf vertaald.
